<?xml version="1.0" encoding="utf-8"?>
<!-- Generator: Adobe Illustrator 24.3.0, SVG Export Plug-In . SVG Version: 6.00 Build 0)  -->
<svg version="1.1" id="Layer_1" xmlns="http://www.w3.org/2000/svg" xmlns:xlink="http://www.w3.org/1999/xlink" x="0px" y="0px"
	 viewBox="0 0 30.1 32.7" style="enable-background:new 0 0 30.1 32.7;" xml:space="preserve">
<style type="text/css">
	.st0{fill:#F43C05;}
	.st1{fill:#FAF9C9;}
	.st2{fill:#F83A06;}
	.st3{fill:#EE2700;}
	.st4{fill:#EB1906;}
	.st5{fill:#EF3701;}
	.st6{fill:#FEE310;}
	.st7{fill:#FEE313;}
	.st8{fill:#EE5802;}
	.st9{fill:#ED2603;}
	.st10{fill:#EF5A05;}
	.st11{fill:#ED3701;}
	.st12{fill:#FAF6A9;}
	.st13{fill:#EB1208;}
	.st14{fill:#F17C02;}
	.st15{fill:#FAA509;}
	.st16{fill:#FE6440;}
	.st17{fill:#EA3002;}
	.st18{fill:#F37C04;}
	.st19{fill:#F69B05;}
	.st20{fill:#F21C09;}
	.st21{fill:#EE1B0C;}
	.st22{fill:#FAB208;}
	.st23{fill:#F31B0F;}
	.st24{fill:#F43E18;}
	.st25{fill:#FD2820;}
	.st26{fill:#FD3831;}
	.st27{fill:#FE6843;}
	.st28{fill:#FE6E30;}
	.st29{fill:#FE642F;}
	.st30{fill:#FE7543;}
	.st31{fill:#FCFCDE;}
	.st32{fill:#FBF9B0;}
	.st33{fill:#FE5625;}
	.st34{fill:#F52A02;}
	.st35{fill:#FB3804;}
	.st36{fill:#FE5330;}
	.st37{fill:#FC8206;}
	.st38{fill:#FA5204;}
	.st39{fill:#FE6A1C;}
	.st40{fill:#FEEA66;}
	.st41{fill:#FCF693;}
	.st42{fill:#FDEF78;}
	.st43{fill:#FECC18;}
	.st44{fill:#FEBE13;}
	.st45{fill:#FED424;}
	.st46{fill:#FC9E06;}
	.st47{fill:#FCA209;}
	.st48{fill:#FEB50F;}
	.st49{fill:#FE9D47;}
	.st50{fill:#FE7345;}
	.st51{fill:#FE9339;}
	.st52{fill:#FE6931;}
	.st53{fill:#FEAA3E;}
	.st54{fill:#FE933A;}
	.st55{fill:#FE9816;}
	.st56{fill:#FEAC25;}
	.st57{fill:#FE4913;}
	.st58{fill:#FE663F;}
	.st59{fill:#FE8621;}
	.st60{fill:#FECE4F;}
	.st61{fill:#FEDD58;}
	.st62{fill:#FECD48;}
	.st63{fill:#FEE856;}
	.st64{fill:#FEE643;}
	.st65{fill:#FEC02E;}
	.st66{fill:#FEBC28;}
	.st67{fill:#FECD3B;}
	.st68{fill:#FEA02D;}
	.st69{fill:#FEB847;}
</style>
<g>
	<path class="st0" d="M14,7.3c0.2-0.6,0.1-1.1,0.2-1.7c0.3,0,0.1,0.3,0.2,0.4c0.1-0.3-0.3-0.7,0.1-1c0.3,0.1,0.3,0.4,0.4,0.7
		c0.3,1,0,1.9-0.4,2.9c-0.2,0.5-0.6,0.7-1.1,0.7c-0.3,0-0.7,0-0.8,0.4c-0.8,1.7-1,3.5-1.2,5.4c-0.1,1.6-0.6,2.1-2.3,2.1
		c-0.1,0-0.3,0-0.4,0c-0.7-0.3-1.3-0.7-1.4-1.5c0.1-0.1,0.1-0.2,0.3-0.2c0.2,0.2,0.3,0.5,0.5,0.7c0.3,0.3,0.7,0.5,1.2,0.4
		c0.5-0.1,0.7-0.5,0.8-1c0.1-0.6,0.1-1.1,0.1-1.7c0.1-1.4,0.6-2.7,1.2-3.9c0.4-0.6,0.7-1.1,1.6-1.1C13.7,8.5,14,7.9,14,7.3z"/>
	<path class="st1" d="M16.3,27.3c-0.3,0.3-0.7,0.1-1.1,0.1c-0.5-0.1-1.1-0.1-1.3-0.7c-0.3-0.4-0.6-0.8-0.9-1.2
		c-0.7-0.9-0.7-1.6,0.1-2.4c0.3-0.3,0.6-0.7,0.8-1.1c0.1-0.1,0.1-0.2,0.2-0.3c0.8-0.4,1.2-0.4,1.9,0.1c1.1,0.9,1.4,1.9,1,3.3
		c-0.1,0.3-0.3,0.6-0.2,1C16.8,26.5,16.3,26.8,16.3,27.3z"/>
	<path class="st2" d="M14.8,3.4c1.2,0.8,2.4,1.7,3.4,2.8c0.7,0.9,1.6,1.6,2,2.7c0.1,0.4,0.3,0.7,0.3,1.1c-0.2,0.5-0.2,1.1-0.8,1.4
		c-0.6-0.3-0.5-0.9-0.5-1.4c0-1.2-0.5-2.1-1.3-2.9c-0.9-1-2-1.8-3-2.7c-0.2-0.2-0.4-0.3-0.5-0.6C14.5,3.6,14.6,3.4,14.8,3.4z"/>
	<path class="st3" d="M23.2,21.9C23.1,21.9,23,22,23,22.1c-0.4,0-0.4-0.3-0.5-0.6c0-0.3-0.1-0.6-0.1-0.8c0.5-1.3,0.5-2.6,0.3-3.9
		c-0.1-0.7,0.4-1.3,0.4-2c0-0.1,0.1-0.3,0.2-0.3c0.1,0,0.2,0.1,0.3,0.2c0.4,1.1,0.6,2.3,0.8,3.5c0,0.3-0.1,0.5-0.2,0.7
		C23.4,19.8,23.4,20.9,23.2,21.9z"/>
	<path class="st4" d="M23.2,21.9c0-0.9-0.1-1.8,0.5-2.7c0.5-0.6,0.5-1.4,0.3-2.1c-0.2-0.9-0.3-1.8-0.8-2.5c-0.4,0.3-0.6,1.1-1.3,1
		c-0.9-0.1-1.2-0.3-1.3-1c0.1-0.1,0.2-0.1,0.2,0c1,0.9,1.6,0.6,2.2-1.3c0.8,1.5,1.2,2.9,1.4,4.5c0.2,1.4,0,2.7-0.9,3.9
		C23.4,21.7,23.2,21.8,23.2,21.9z"/>
	<path class="st5" d="M5.3,18c0-0.7,0.2-1.3,0.4-1.9c0.5-0.3,0.3-1,0.9-1.1c0.2,0.1,0.2,0.2,0.2,0.4c0,0.2-0.1,0.5-0.1,0.7
		c-0.1,0.7-0.3,1.5-0.2,2.2c0.1,0.8,0.3,1.6,1.1,2C8,20.6,8.1,21.1,8,21.6c-0.6,0.3-0.8-0.3-1.2-0.5c-0.2-0.6-0.5-1.2-0.9-1.7
		C5.5,19,5.5,18.4,5.3,18z"/>
	<path class="st6" d="M13.7,27.4c-0.3,0-0.6,0.1-0.9-0.1c-0.5-0.6-1.1-1.1-1.8-1.5c-0.1-0.1-0.2-0.2-0.2-0.4c0-0.5,0.1-0.9,0.5-1.2
		c0.2-0.1,0.3,0.1,0.5,0.2c0.1,0.1,0.1,0.2,0.2,0.2c0.2,0.2,0.3,0.4,0.5,0.6c0.4,0.4,0.8,0.9,1.1,1.4C13.7,26.9,13.9,27.1,13.7,27.4
		z"/>
	<path class="st7" d="M16.3,27.3c-0.2,0-0.4,0-0.2-0.3c0.2-0.3,0.4-0.5,0.5-0.8c0.1-0.2,0.2-0.4,0.4-0.6c0.2-0.3,0.4-0.5,0.6-0.7
		c0.1-0.1,0.1-0.3,0.2-0.5c0.1-0.1,0.2-0.2,0.4-0.2c0.4,0.1,0.8,0,1.1,0.1c0.1,0.2,0.1,0.4,0.1,0.6c-0.7,1-1.7,1.5-2.6,2.2
		C16.6,27.2,16.5,27.2,16.3,27.3z"/>
	<path class="st8" d="M9.2,26c-0.4-0.1-0.7-0.3-0.9-0.6c-0.4-0.4-0.6-0.8-0.3-1.3c0-0.2-0.1-0.3-0.1-0.5c0.1-0.4,0.3-0.7,0.6-1
		c0.2,0,0.3,0.2,0.4,0.3c0.2,0.3,0.4,0.6,0.5,0.9c0,0.6-0.1,1.1,0,1.7C9.4,25.8,9.5,26,9.2,26z"/>
	<path class="st9" d="M5.3,18c0.4,0.8,0.9,1.6,1.4,2.3c0.2,0.2,0.2,0.5,0.2,0.8c0.2,0.4,0.3,0.8-0.3,0.9C5.7,20.8,5.1,19.5,5.3,18z"
		/>
	<path class="st10" d="M21.9,23.4c0,0,0,0.1-0.1,0.1c-0.2,0.3-0.6,0.5-0.4,0.8c0.2,0.3,0.6,0,1,0c-0.6,0.6-1.3,1-2.1,1.3
		c-0.4,0-0.2-0.3-0.2-0.4c0.1-0.5,0.2-0.9,0.2-1.4c0-0.1,0-0.1,0.1-0.2c0.4-0.4,0.5-1.1,1.2-1.2C21.9,22.7,22,23,21.9,23.4z"/>
	<path class="st11" d="M6.5,22c0.4-0.2,0.3-0.6,0.3-0.9c0.5,0.1,0.7,0.5,1.1,0.6c0.4,0.2,0.6,0.6,0.5,1.1c-0.1,0.4-0.3,0.7-0.6,0.9
		C7.4,23.1,7,22.6,6.5,22z"/>
	<path class="st12" d="M13.7,27.4c-0.2-0.9-0.9-1.4-1.4-2.2c-0.5-1.5-0.2-2.6,1-3.5c0.3-0.2,0.5-0.3,0.8-0.3c0.1,0.1,0.1,0.2,0,0.3
		C14.1,21.9,14,21.9,14,22c-0.2,0.3-0.5,0.5-0.7,0.7c-0.9,0.8-1,1.8-0.3,2.8c0.3,0.4,0.7,0.7,1,1.2c0.2,0.5,0.8,0.6,1.2,0.8
		C14.7,27.3,14.2,27.8,13.7,27.4z"/>
	<path class="st13" d="M20.7,14.5c-0.1,0-0.1,0-0.2,0c-0.5-0.4-0.4-0.9-0.3-1.3c0.2-1.1,0.2-2.2,0.2-3.3c-0.1-1.2-0.8-2-1.6-2.9
		c-0.2-0.3-0.7-0.4-0.6-0.8c2.1,1.7,3.1,3.9,2.5,6.6C20.6,13.3,20.6,13.9,20.7,14.5z"/>
	<path class="st14" d="M9.2,26c0.1-0.7-0.2-1.5,0-2.2c0.2-0.1,0.3,0,0.4,0.1c0.2,0.3,0.6,0.6,0.7,1c0,0.5,0.1,0.9,0.3,1.3
		c0.1,0.1,0.3,0.4-0.1,0.4C9.9,26.5,9.5,26.3,9.2,26z"/>
	<path class="st15" d="M16.8,27.1c0.7-0.9,1.7-1.4,2.5-2.2c0.1-0.1,0.1-0.1,0.2,0c0.5,0.6-0.1,1-0.4,1.4
		C18.4,26.7,17.6,27,16.8,27.1z"/>
	<path class="st16" d="M8.1,10.5C8,10.7,8,11,7.8,11.1c-0.4,0.3-0.6,0.9-1.2,1.1c-0.2-0.7,0-1.3,0.4-1.9c0.1-0.2,0.3-0.3,0.3-0.5
		c0.1-0.1,0.2-0.2,0.3-0.3c0.4-0.3,0.6-0.2,0.6,0.3C8.1,10.1,8,10.3,8.1,10.5z"/>
	<path class="st17" d="M21.9,23.4c-0.2-0.3-0.2-0.6-0.3-0.9c-0.1-0.3,0.1-0.6,0.2-0.8c0.2-0.3,0.2-0.8,0.8-0.9
		c0.3,0.4-0.1,1.1,0.4,1.4C22.7,22.7,22.3,23,21.9,23.4z"/>
	<path class="st18" d="M19.1,26.3c-0.3-0.3,0.2-0.4,0.2-0.6c0-0.3,0.2-0.5,0.1-0.8c0.2-0.5,0.5-1,1.1-1.1c0.3,0.5,0,1-0.1,1.5
		c0,0.1-0.2,0.3,0,0.4C20,26.1,19.5,26.1,19.1,26.3z"/>
	<path class="st19" d="M10.4,26.7c0.1-0.4-0.3-0.7-0.3-1.2c0-0.2,0-0.4,0.1-0.6c0.1,0,0.1-0.1,0.2-0.1c0.3,0.1,0.4,0.3,0.6,0.5
		c0.1,0.1,0.1,0.2,0.2,0.3c0.3,0.5,0.7,0.9,0.9,1.4c0,0,0,0-0.1,0.1c0,0-0.1,0-0.1,0C11.3,27.1,10.8,26.9,10.4,26.7z"/>
	<path class="st20" d="M6.7,15c-0.2,0.4-0.5,0.8-0.8,1.2c-0.2,0.2-0.1,0-0.2-0.1c0.3-1.1,0.9-2,1.7-3c0.2,0.9,0,1.6,0.2,2.2
		c-0.1,0.1-0.1,0.1-0.2,0.2c-0.6-0.4-0.4-1-0.3-1.5C7,14.3,7.2,14.8,6.7,15z"/>
	<path class="st21" d="M14,7.3c0.1,0.7-0.4,1.5-1,1.5c-0.7,0-1.1,0.3-1.4,0.9c0,0.1-0.1,0.1-0.2,0c0.1-0.3,0.2-0.6,0.3-0.9
		c0.1-0.2,0.1-0.3,0.4-0.3C13.2,8.7,13.7,8.1,14,7.3z"/>
	<path class="st22" d="M11.8,27.1c-0.2-0.5-0.8-0.8-0.7-1.4c0.7,0.4,1.4,0.7,1.7,1.6C12.4,27.3,12.1,27.3,11.8,27.1z"/>
	<path class="st23" d="M14.8,3.4c-0.1,0.1-0.1,0.2-0.2,0.3c-0.1,0.4,0.2,0.9-0.1,1.2c0,0.4,0,0.8,0,1.3c-0.3-0.2-0.1-0.5-0.3-0.7
		c-0.1-0.9-0.2-1.7-0.3-2.8C14.3,3,14.5,3.2,14.8,3.4z"/>
	<path class="st24" d="M7.9,24.1c0,0.5,0.1,0.9,0.3,1.3c-0.7-0.5-1.4-1.1-2.1-1.8C6.9,23.7,7.3,24.3,7.9,24.1z"/>
	<path class="st25" d="M7.2,9.9c0.2,0.2,0,0.4-0.1,0.5c-0.4,0.5-0.6,1.1-0.5,1.7c0.6-0.1,0.6-0.9,1.2-1c-0.3,0.7-0.8,1.1-1.4,1.7
		C6.2,11.6,6.4,10.7,7.2,9.9z"/>
	<path class="st26" d="M8.1,10.5C7.9,10.4,7.9,10.2,8,10C8,9.6,7.8,9.6,7.5,9.6c0.2-0.3,0.4-0.7,0.6-1.3C8.3,9.2,8.2,9.9,8.1,10.5z"
		/>
	<path class="st27" d="M14.5,4.9c0.2-0.4-0.4-0.9,0.1-1.2c0.1,0.2,0.3,0.4,0.5,0.5c0.6,0.8,1.5,1.4,2.2,2.2c0.4,0.4,0.8,0.9,1,1.5
		c0.2,0.8,0.3,1.6-0.2,2.4c-0.1,0-0.1,0.1-0.2,0.1c-0.6-0.3-0.7-1-1.1-1.5c-0.3-0.3-0.5-0.7-0.8-1c-0.2-0.2-0.4-0.4-0.7-0.2
		C15,7.8,14.9,8,14.9,8.3c-0.3,1-1.2,1.6-2.3,1.4c0,0-0.1-0.1-0.1-0.1c0-0.4,0.1-0.6,0.6-0.6c1.2,0,1.1,0,1.5-1.2
		C14.8,6.8,14.9,5.8,14.5,4.9z"/>
	<path class="st28" d="M8.7,16.9c0.1,0,0.2,0,0.3,0c0.4,0.5,0.9,0.3,1.4,0.1c0.4-0.1,0.7-0.6,1.2-0.4c0.2,0.3,0,0.7,0,1
		c-0.2,0.7-0.5,1.3-1.2,1.7c-0.2,0.1-0.4,0.2-0.6,0.2c-0.1,0-0.2,0-0.3-0.1c-0.2-0.6-0.6-1-1.2-1.2c-0.6-0.3-1-0.8-1.3-1.2
		c-0.2-0.3-0.3-0.6-0.1-0.9c0.4-0.1,0.4,0.3,0.6,0.4C7.7,16.9,8.1,17.2,8.7,16.9z"/>
	<path class="st29" d="M11.5,16.6c-0.5,0.3-1,0.6-1.5,0.8c-0.5,0.2-0.9,0.1-1-0.5c1.8,0,2-0.2,2.2-2.1c0.1-1.6,0.2-3.2,0.9-4.6
		c0.1-0.2,0.1-0.4,0.3-0.6c0,0,0,0,0,0c0.3,0.6,0.1,1.2,0,1.7c-0.1,0.8-0.2,1.6-0.2,2.4C11.9,14.7,12,15.7,11.5,16.6z"/>
	<path class="st30" d="M8.7,16.9c-0.3,0.5-0.9,0.5-1.3,0c-0.2-0.3-0.4-0.6-0.6-0.9c-0.1-0.2-0.1-0.4,0-0.6c-0.1-0.1-0.1-0.2-0.2-0.3
		c0.2-0.4,0.3-0.8,0.5-1.3c-0.1,0.6,0,1.2,0.3,1.7C7.6,16.2,8.2,16.5,8.7,16.9z"/>
	<path class="st31" d="M16.3,23.9c0,1-0.4,1.7-0.8,2.4c-0.3,0.4-0.6,0.5-1,0.2c-1.2-0.6-1.5-2.8-0.5-3.7c0.4-0.4,0.9-0.5,1.4-0.3
		C16.1,22.9,16.4,23.4,16.3,23.9z"/>
	<path class="st32" d="M14.1,21.8c0-0.1,0-0.2,0-0.3c0.1-0.8,0.5-1.1,1.2-0.8c1.7,0.7,2.6,2.6,2,4.3c-0.1,0.2-0.1,0.4-0.3,0.6
		c-0.1,0.2-0.2,0.4-0.4,0.5c-0.2-0.3-0.1-0.6,0-0.9c0.6-1.5,0.5-2.4-0.7-3.4C15.3,21.5,14.8,21.3,14.1,21.8z"/>
	<path class="st32" d="M14,26.6c-0.5-0.4-1-0.7-1.2-1.3c-0.6-1.4-0.4-2.3,0.9-3.1c0.1-0.1,0.2-0.1,0.3-0.2c-0.1,0.5-0.4,0.8-0.7,1.1
		c-0.8,0.8-0.8,1.5-0.1,2.3C13.5,25.8,13.9,26.1,14,26.6z"/>
	<path class="st33" d="M18,7.7c-0.5-1.1-1.5-1.8-2.3-2.7c-0.2-0.3-0.6-0.4-0.6-0.8c1.3,1.1,2.6,2.2,3.7,3.6c0.8,1,0.5,2.1,0.8,3.1
		c0,0.1,0,0.3,0.2,0.4c0.4,0.6,0.2,1.2,0.2,1.8c-0.1,0.6-0.1,1.1,0,1.7c-0.3,0.4-0.6,0.1-0.8-0.1c-0.4-0.3-0.6-0.7-0.8-1.2
		c-0.2-0.7-0.1-1.3,0.3-1.9c0.5-0.8,0.5-1.6,0-2.4C18.3,8.7,18.3,8.2,18,7.7z"/>
	<path class="st34" d="M19.9,14.9c-0.3-0.4-0.4-0.8-0.3-1.2c0.2-0.8,0.1-1.6,0.1-2.4c0.3-0.4,0.5-0.9,0.6-1.4c0.5,1,0.2,2.1,0.1,3.1
		c-0.1,0.5-0.1,1,0.1,1.5c0.3,0.5,0.7,0.9,1.4,0.8C21.4,15.9,20.4,15.7,19.9,14.9z"/>
	<path class="st35" d="M22.5,20.7c-0.3,0.2-0.4,0.6-0.6,0.9c-0.3-0.1-0.6,0.1-0.8-0.3c-0.1-0.7,0.4-1.1,0.4-1.8
		c0.1-1.3,0.3-2.7,0.8-3.9c0.2-0.3,0.4-0.7,0.8-0.8c0,0.1,0.1,0.3,0,0.4c-0.5,0.9-0.3,1.9-0.2,2.8C23.1,19,23,19.9,22.5,20.7z"/>
	<path class="st36" d="M23.1,14.8c-0.2,0.3-0.4,0.5-0.6,0.8c-0.5,0.6-1.1,1.1-1.4,1.9c-0.5,0-1,0.6-1.6,0.3c-0.2-0.4-0.2-0.9,0-1.3
		c0.4-0.6,0.1-1-0.3-1.3c-0.2-0.2-0.4-0.3-0.6-0.6c-0.2-0.4-0.5-0.7-0.1-1.2c0.4,0.5,0.6,1.2,1.4,1.4c0.6,0.4,1.2,0.8,2,0.5
		c0.6,0,0.8-0.4,0.9-0.9c0-0.1,0-0.4,0.3-0.2c0.1,0,0,0.2,0.1,0.3C23.1,14.6,23.1,14.7,23.1,14.8z"/>
	<path class="st37" d="M8.4,22.8c-0.2-0.4-0.3-0.7-0.5-1.1c-0.1-0.5-0.2-0.9-0.3-1.4c-0.4-0.5-0.4-1.1-0.3-1.7
		c0.1-0.3,0.4-0.4,0.6-0.2c0.4,0.3,0.9,0.5,1.1,1.1c-0.3,0.6,0,1.2,0,1.8c0,0.7,0.2,1.4-0.4,1.9C8.6,23,8.5,22.9,8.4,22.8z"/>
	<path class="st38" d="M7.5,18.4c0,0.6,0,1.2,0.1,1.9c-1.2-0.4-1.1-1.5-1.2-2.4c-0.1-0.7,0.1-1.3,0.3-1.9c0.1,0.6,0.3,1.1,0.6,1.6
		C7.5,17.8,7.7,18.1,7.5,18.4z"/>
	<path class="st39" d="M7.5,18.4c-0.3-0.8-0.9-1.5-0.8-2.5c0-0.2-0.1-0.5,0.2-0.6c0,0.2,0,0.4,0,0.6c0,1.2,0.9,1.7,1.7,2.2
		c0.5,0.3,1,0.5,0.9,1.2c-0.2,0.1-0.3,0.1-0.5,0c-0.4-0.2-0.7-0.4-1-0.7C7.9,18.4,7.8,18.2,7.5,18.4z"/>
	<path class="st40" d="M18.2,24.3c-0.1,0.1-0.2,0.1-0.3,0.2c-0.1-0.1-0.1-0.2-0.1-0.4c0.2-1.9-0.9-3-2.3-4c-0.4-0.3-0.8-0.3-1.2,0
		c-1.3,0.9-2.2,2.1-2.5,3.7c0,0.2,0,0.5-0.2,0.6c-0.1-0.1-0.2-0.2-0.3-0.3c-0.1-0.1-0.1-0.1-0.1-0.2c-0.1-0.8,0.3-1.5,0.6-2.3
		c0-0.1,0.1-0.1,0.1-0.2c0-0.1,0.1-0.1,0.2-0.2c0.3-0.5,0.6-1,0.9-1.4c1.1-1.3,2.4-1.4,3.6-0.2c0.2,0.2,0.5,0.4,0.7,0.7
		c0.7,1.1,1.4,2.2,1.1,3.7C18.3,24.2,18.3,24.3,18.2,24.3z"/>
	<path class="st41" d="M17.1,25.7c0-0.4,0.1-0.7,0.2-1.1c0.7-1.7-0.9-3.4-2.2-3.8c-0.6-0.2-0.7,0.4-0.9,0.7c-0.9,0.3-1.4,1-1.9,1.8
		c-0.3,0.7,0.1,1.3,0,1.9c-0.2-0.2-0.3-0.4-0.5-0.6c-0.2-2.1,1-3.4,2.7-4.5c0.3-0.2,0.6-0.2,0.9,0c1.6,0.6,2.6,2.6,2.3,4.2
		c0,0.2,0,0.4,0,0.5C17.5,25.2,17.3,25.4,17.1,25.7z"/>
	<path class="st42" d="M17.7,24.9c-0.3-0.5,0.1-1,0-1.6c-0.1-1.1-1.7-3-2.7-3.1c-0.6-0.1-1.1,0.4-1.4,0.8c-0.7,0.7-1.4,1.5-1.7,2.6
		c-0.1,0.3,0.2,0.7-0.1,1c-0.1-0.1-0.1-0.1-0.2-0.2c-0.1-2,1.1-3.4,2.5-4.5c0.5-0.4,0.9-0.4,1.4,0c1.1,0.8,2,1.7,2.3,3
		c0.2,0.5,0,1-0.1,1.5C17.9,24.6,17.9,24.8,17.7,24.9z"/>
	<path class="st43" d="M11.4,24c0,0.1,0,0.1,0,0.2c-0.2,0.4-0.4,0.8-0.5,1.2c-0.2-0.2-0.4-0.3-0.6-0.5c-0.4-0.9-0.3-1.8-0.1-2.7
		c0.2-0.3,0.4-0.2,0.6-0.1C11.2,22.7,11.1,23.4,11.4,24z"/>
	<path class="st44" d="M20.5,23.8c-0.4,0.4-0.7,0.7-1.1,1.1c-0.1,0-0.1,0-0.2,0c0-0.2,0-0.4,0-0.6c0-0.6,0.2-1.2,0.4-1.7
		c0.2-0.4,0.3-0.8,0.5-1.1c0.1-0.2,0.3-0.5,0.5-0.1c0.1,0.8,0.3,1.6-0.1,2.4C20.5,23.8,20.5,23.8,20.5,23.8z"/>
	<path class="st45" d="M19.7,22.6c0,0.6-0.1,1.2-0.5,1.7c-0.4,0.2-0.7,0.2-1.1,0c0-0.1,0-0.1,0-0.2c0.3-0.4,0.2-1,0.5-1.4
		c0.2-0.3,0.3-0.7,0.7-0.8C19.7,22.1,19.8,22.3,19.7,22.6z"/>
	<path class="st46" d="M8.7,23.1c0.2-0.7,0.2-1.3,0.2-2c0.6-0.1,0.7,0.3,0.8,0.7c0,0.7,0.2,1.5-0.2,2.2c-0.1-0.1-0.2-0.1-0.3-0.2
		C9,23.6,8.9,23.3,8.7,23.1z"/>
	<path class="st47" d="M20.5,23.7c0-0.8,0-1.7,0-2.5c-0.1-0.1-0.1-0.2,0-0.3c0.5-0.2,0.6,0.3,0.8,0.6c0.2,0.1,0.6-0.3,0.6,0.2
		c-0.1,0.3-0.2,0.5-0.3,0.8C21.2,22.8,21.1,23.5,20.5,23.7z"/>
	<path class="st48" d="M9.5,24c0-0.8,0-1.6,0-2.3c0.1-0.1,0-0.3,0.2-0.4c0.3,0,0.5,0.2,0.7,0.5c0,0.1,0,0.2-0.1,0.3
		c0,0.9,0,1.9,0,2.8c-0.1,0-0.1,0-0.2,0C10,24.6,9.5,24.4,9.5,24z"/>
	<path class="st49" d="M15.2,7.4c0.3-0.3,0.5,0,0.7,0.2c0.8,0.8,1.4,1.6,1.8,2.6c0,0,0,0.1,0,0.1c-1,1.7-0.2,3.2,0.6,4.8
		c0,0,0,0.1,0,0.1c0,0.9,0.1,1.7,0.5,2.4c0,0.1-0.1,0.2-0.2,0.3c-0.8-0.2-1.4-0.8-1.4-1.7c0-0.6,0-1.2-0.1-1.8
		c-0.2-0.9-0.8-1.3-1.7-1.1c-0.8,0.2-1.6,0.6-2,1.4c-0.2,0.3-0.3,0.9-0.8,0.9c-0.3-0.6-0.3-1.2-0.5-1.8c0.1-1.1,0.7-1.8,1.3-2.6
		c0.2-0.4,0.5-0.7,0.8-1C14.7,9.5,15.1,8.8,15,8C15,7.8,15.1,7.6,15.2,7.4z"/>
	<path class="st50" d="M15.2,7.4c0.3,1.6-0.7,2.6-1.5,3.7c-0.7,0.8-1.2,1.7-1.6,2.7c0,0.1-0.1,0.1-0.2,0c-0.1-1.4,0.3-2.8,0.5-4.2
		c0.7,0.1,1.3-0.4,1.9-0.6c0.2-0.1,0.2-0.3,0.2-0.5C14.6,8,14.8,7.6,15.2,7.4z"/>
	<path class="st51" d="M18.2,15.2c-0.6-0.8-0.8-1.8-1.1-2.7c-0.3-0.9,0.2-1.6,0.6-2.2c0.1,0,0.1,0,0.2,0c0.5,0.5,0.6,1.1,0.6,1.8
		c-0.1,0.8-0.1,1.5,0,2.3C18.5,14.7,18.7,15,18.2,15.2z"/>
	<path class="st52" d="M18.3,14.4c0-1.4,0.1-2.8-0.5-4.2c0.5-0.8,0.3-1.6,0.2-2.5c0.5,0.6,0.7,1.3,1.1,2c0.3,0.5,0.1,1-0.1,1.5
		c-0.4,0.7-0.6,1.4-0.5,2.3c-0.1,0.4,0,0.8,0.3,1.1C18.6,14.7,18.5,14.6,18.3,14.4z"/>
	<path class="st53" d="M12.6,15.6c0.6-0.7,0.8-1.7,1.7-2.1c0.5-0.3,1-0.6,1.7-0.5c1.1,0.2,1.3,0.4,1.4,1.9c0,0.3,0,0.7,0,1
		c0,0.9,0.4,1.5,1.2,1.8c0.4,0.6,1,1,0.8,1.9c-0.1,0.1-0.2,0.1-0.3,0.1c-1-0.9-2-2-2.1-3.5c0-0.5,0-0.9-0.1-1.4
		c-0.2-0.7-0.6-1-1.4-1c-0.9,0.1-1.6,0.5-2.1,1.3c-0.3,0.5-0.6,1.1-0.8,1.7c-0.4,1.1-1,2-1.7,2.9c-0.2,0.1-0.3,0.2-0.6,0.1
		c-0.2-0.2-0.3-0.5-0.1-0.8c0.6-0.4,0.9-0.9,1.1-1.6C11.8,17,12,16.2,12.6,15.6z"/>
	<path class="st54" d="M12.6,15.6c-0.3,0.8-0.5,1.5-1.2,2c0.1-0.4,0.1-0.7,0.2-1.1c0-1,0.2-1.9,0.5-2.8c0.1,0,0.1,0,0.2,0
		C12.4,14.3,12.7,14.9,12.6,15.6z"/>
	<path class="st55" d="M9.7,21.4c0,0.1,0,0.2-0.2,0.3c0-0.4-0.4-0.5-0.6-0.6c0-0.3-0.1-0.6-0.1-0.9c0-0.3-0.2-0.7,0.3-0.8
		c0.2,0,0.3,0,0.5,0c0.1,0,0.2,0,0.3,0C10,20,10,20.7,9.7,21.4z"/>
	<path class="st56" d="M9.7,21.4c0-0.7-0.1-1.4,0.2-2c0.2-0.1,0.3-0.1,0.5-0.2c0.1,0.3,0.1,0.5,0.2,0.8c0.2,0.6,0.1,1.3-0.2,1.9
		C10.1,21.7,9.9,21.5,9.7,21.4z"/>
	<path class="st57" d="M21.3,21.5c-0.4-0.1-0.5-0.4-0.8-0.6c-0.1-0.1-0.1-0.2-0.1-0.3c0-0.2,0.1-0.5,0.1-0.7
		c0.4-0.8,0.2-1.6,0.6-2.4c0-1,0.7-1.4,1.4-1.9c-0.4,1.4-0.7,2.9-0.8,4.4C21.7,20.6,21.1,20.9,21.3,21.5z"/>
	<path class="st58" d="M18.3,14.4c0.2,0.1,0.3,0.1,0.5,0.2c0.1,0.3,0.4,0.3,0.6,0.5c0.5,0.4,1,0.8,0.3,1.6c-0.3,0.3-0.1,0.8-0.1,1.2
		c0,0.1-0.1,0.1-0.2,0.1c-0.2,0-0.5-0.1-0.6-0.3c-0.7-0.7-0.7-1.6-0.6-2.5C18.4,14.9,18.3,14.6,18.3,14.4z"/>
	<path class="st59" d="M19.4,17.8c0.1,0,0.1,0,0.2,0c0.3,0,0.6-0.1,0.8-0.3c0.2-0.1,0.5-0.2,0.7,0c0,0.9,0,1.7-0.5,2.5
		C20.2,19.3,19.5,18.7,19.4,17.8z"/>
	<path class="st60" d="M12.1,21.5c-0.1,0-0.1,0-0.2,0c-0.5-0.7-0.2-1.4,0-2.1c0.2-0.6,0.5-1.1,0.8-1.6c0.8-0.7,1.3-1.6,2.1-2.4
		c0.2-0.2,0.4-0.4,0.6-0.5c0.4-0.2,0.7-0.1,0.7,0.4c0,0.2,0,0.4-0.1,0.5c-0.1,0.8,0.1,1.4,0.8,2c0.6,0.5,1.2,1.1,1.5,1.9
		c0.1,0.7,0.4,1.3,0.1,2c-0.5,0.2-0.4-0.3-0.5-0.5c-0.1-0.3-0.2-0.6-0.5-0.8c-0.7-0.6-1.5-1.2-1.9-2.1c-0.2-0.4-0.6-0.5-1-0.3
		c-0.5,0.1-0.9,0.4-1.1,0.9C13,19.7,12.4,20.6,12.1,21.5z"/>
	<path class="st61" d="M12.1,21.5c0.1-1.2,0.7-2.3,1.4-3.3c0.7-1,1.8-0.8,2.3,0.3c0.4,0.7,1,1.1,1.6,1.5c0.3,0.3,0.6,0.5,0.6,0.9
		c-0.4,0-0.7-0.3-0.9-0.6c-0.3-0.2-0.5-0.4-0.8-0.7c-1-1-2.3-0.9-3.2,0.3C12.8,20.5,12.5,21,12.1,21.5z"/>
	<path class="st62" d="M12.9,17.8c-0.1,0.5-0.4,0.9-0.6,1.3c-0.4,0.8-0.4,1.6-0.3,2.4c0,0.1,0,0.1,0,0.2c-0.2,0.3-0.4,0.7-0.9,0.4
		c-0.2-0.6-0.3-1.2-0.1-1.8c0.4-0.8,1-1.5,1.5-2.3C12.6,17.9,12.7,17.7,12.9,17.8z"/>
	<path class="st63" d="M17.1,20.4c0.4,0.1,0.7,0.3,0.9,0.6c0.1,0.2,0.2,0.4,0.3,0.6c0.4,0.2,0.7,0.6,0.5,1.1
		c-0.2,0.5-0.1,1.1-0.6,1.4C18.5,22.7,17.6,21.6,17.1,20.4z"/>
	<path class="st64" d="M11.2,22.1c0.3-0.2,0.5-0.3,0.8-0.5c-0.2,0.8-0.7,1.5-0.6,2.3c-0.4-0.5-0.5-1.1-0.6-1.7
		C10.8,22.1,11,22,11.2,22.1z"/>
	<path class="st65" d="M11.2,22.1c-0.2,0.1-0.3,0.1-0.5,0.2c-0.2-0.1-0.3-0.1-0.5-0.2c0-0.1,0-0.2,0-0.3c0-0.6,0-1.2,0.2-1.9
		c0.2-0.1,0.3-0.1,0.5-0.2c0.3,0,0.2,0.3,0.3,0.5C10.9,20.9,11.4,21.5,11.2,22.1z"/>
	<path class="st66" d="M20.5,20.6c0,0.1,0,0.2,0,0.3c0,0.1,0,0.2,0,0.3c-0.4,0.4-0.3,1-0.8,1.4c-0.1-0.2-0.2-0.4-0.3-0.6
		c-0.3-0.6-0.3-1.3-0.5-2c0-0.1,0.1-0.3,0.2-0.4c0.1,0,0.2,0,0.3,0C20,19.8,20.4,20,20.5,20.6z"/>
	<path class="st67" d="M19.1,20c0.2,0.7,0.4,1.3,0.3,2c-0.2,0.3-0.4,0.5-0.6,0.8c0.1-0.5-0.4-0.7-0.5-1.1c0.1-0.7-0.2-1.4-0.2-2.2
		C18.7,19.3,18.8,19.7,19.1,20z"/>
	<path class="st68" d="M20.5,20.6c-0.3-0.4-0.7-0.6-1.1-0.9c0-0.7-0.7-1.2-0.8-1.9c0.1-0.1,0.1-0.1,0.2-0.2c0.2,0.1,0.4,0.1,0.6,0.2
		c0.3,0.5,0.6,1,1,1.5c0.2,0.2,0.3,0.4,0.3,0.7C20.6,20.2,20.7,20.4,20.5,20.6z"/>
	<path class="st69" d="M19.1,20c-0.3-0.1-0.6-0.4-0.9-0.5c-0.6-0.6-1.1-1.4-1.8-2c-0.7-0.5-0.5-1.3-0.4-2.1c0-0.2,0.2-0.4-0.1-0.6
		c-0.2-0.1-0.4,0.1-0.5,0.2c-0.7,0.6-1.1,1.3-1.7,2c-0.2,0.2-0.5,0.5-0.7,0.7c-0.7,0.8-1.2,1.6-1.7,2.5c-0.1-0.2-0.2-0.3-0.3-0.5
		c0.9-1.5,1.6-3.1,2.4-4.7c0.4-0.8,1.3-1.2,2.2-1.3c1.1-0.1,1.9,0.5,1.8,1.7c-0.2,1.8,0.9,3,1.9,4.2C19.1,19.8,19.1,19.9,19.1,20z"
		/>
</g>
</svg>
